PathFileType	4	(X/Y/Z)	Kaydara																																																																																																																																																																																																																												
DataRate	CameraRate	NumFrames	NumMarkers	Units	OrigDataRate	OrigDataStartFrame	OrigNumFrames																																																																																																																																																																																																																								
60	60	5	74	mm	60	1405	294																																																																																																																																																																																																																								
Frame#	Time	N_lasi			N_rasi			N_rpsi			N_lpsi			N_fneck			N_bneck			N_fhead			N_rhead			N_lhead			N_rshld			N_relbtop			N_relbext			N_relblow			N_rwrext			N_rwrtop			N_rwrlow			N_lshld			N_lelblow			N_lelbtop			N_lwrext			N_lwrtop			N_lwrlow			N_rtopleg			N_ltopleg			N_rkneefr			N_rkneebk			N_rkneeis			N_lkneefr			N_lknssbk			N_lkneeis			N_rankfr			N_rankis			N_rankbk			N_lankfr			N_lankbk			N_lankis			D_lasi			D_rasi			D_lpsi			D_fneck			D_bneck			D_fhead			D_rhead			D_lhead			D_rshld			D_relbtop			D_relbext			D_relblow			D_rwrext			D_rwrtop			D_rwrlow			D_lshld			D_lelbext			D_lelblow			D_lelbtop			D_lwrext			D_lwrtop			D_lwrlow			D_rtopleg			D_ltopleg			D_rkneefr			D_rkneebk			D_rkneeis			D_lkneefr			D_lknssbk			D_lkneeis			D_rankfr			D_rankis			D_rankbk			D_lankfr			D_lankbk			D_lankis			D_rpsi			N_lelbext		
		X1	Y1	Z1	X2	Y2	Z2	X3	Y3	Z3	X4	Y4	Z4	X5	Y5	Z5	X6	Y6	Z6	X7	Y7	Z7	X8	Y8	Z8	X9	Y9	Z9	X10	Y10	Z10	X11	Y11	Z11	X12	Y12	Z12	X13	Y13	Z13	X14	Y14	Z14	X15	Y15	Z15	X16	Y16	Z16	X17	Y17	Z17	X18	Y18	Z18	X19	Y19	Z19	X20	Y20	Z20	X21	Y21	Z21	X22	Y22	Z22	X23	Y23	Z23	X24	Y24	Z24	X25	Y25	Z25	X26	Y26	Z26	X27	Y27	Z27	X28	Y28	Z28	X29	Y29	Z29	X30	Y30	Z30	X31	Y31	Z31	X32	Y32	Z32	X33	Y33	Z33	X34	Y34	Z34	X35	Y35	Z35	X36	Y36	Z36	X37	Y37	Z37	X38	Y38	Z38	X39	Y39	Z39	X40	Y40	Z40	X41	Y41	Z41	X42	Y42	Z42	X43	Y43	Z43	X44	Y44	Z44	X45	Y45	Z45	X46	Y46	Z46	X47	Y47	Z47	X48	Y48	Z48	X49	Y49	Z49	X50	Y50	Z50	X51	Y51	Z51	X52	Y52	Z52	X53	Y53	Z53	X54	Y54	Z54	X55	Y55	Z55	X56	Y56	Z56	X57	Y57	Z57	X58	Y58	Z58	X59	Y59	Z59	X60	Y60	Z60	X61	Y61	Z61	X62	Y62	Z62	X63	Y63	Z63	X64	Y64	Z64	X65	Y65	Z65	X66	Y66	Z66	X67	Y67	Z67	X68	Y68	Z68	X69	Y69	Z69	X70	Y70	Z70	X71	Y71	Z71	X72	Y72	Z72	X73	Y73	Z73	X74	Y74	Z74
																																																																																																																																																																																																																															
148	23.4	-536.21902	1240.9359	-89.0976	-518.09238	1242.87056	-320.72327	-240.19032	1216.95442	-366.3578	-277.09631	1225.02365	-13.65532	-391.67343	1609.31122	-201.12665	-252.98616	1665.32394	-213.95536	-440.23254	1812.57263	-204.70932	-256.34701	1766.12427	-275.32782	-294.08989	1777.17056	-123.65987	-297.93522	1534.84619	-461.67007	-236.66697	1226.43173	-477.49268	-318.91495	1142.87254	-465.82985	-326.85635	1223.0825	-471.16367	-244.14782	904.8835	-483.79963	-289.48799	893.00652	-495.21572	-318.6371	907.11807	-459.79298	-263.49854	1625.28885	-14.22875	-272.70535	1611.978	255.31374	-267.35785	1527.00974	266.68831	-306.50743	1583.54218	582.82948	-270.54144	1613.80417	589.40685	-298.24001	1657.7153	572.87281	-419.61384	1038.76961	-446.67831	-376.07563	1018.97842	38.72802	-431.43623	561.50555	-264.76818	-325.0491	578.60489	-332.64034	-370.23491	565.03654	-171.19209	-383.75343	539.87225	-105.82726	-258.27438	557.25224	-45.09655	-257.97266	547.9253	-194.64531	-296.3133	139.52446	-272.92387	-298.80774	154.64395	-193.08382	-216.74366	142.2583	-217.53025	-333.24039	193.25598	-120.55669	-260.33379	186.73452	-76.56372	-296.33379	165.73452	-160.56372	-472.5465	1048.55133	1742.2998	-438.09776	1060.0885	1455.13443	-276.17323	1138.57407	1746.67358	-400.76359	1570.3125	1594.09607	-257.07663	1593.89801	1599.04831	-442.52316	1772.40723	1595.82626	-278.77604	1731.96381	1518.24997	-287.86207	1731.79337	1675.27496	-300.3215	1592.55386	1503.78799	-441.31218	1732.73132	1308.85437	-475.96924	1738.60321	1374.76227	-377.65194	1766.20026	1353.22968	-487.53639	2006.0582	1329.30206	-447.5148	2007.30438	1369.51294	-487.28233	1993.45795	1404.87183	-297.98248	1584.43039	1706.92688	-437.45628	1746.16257	1828.45383	-342.57927	1753.88275	1847.17758	-403.00133	1741.92703	1900.09171	-428.49651	2008.80951	1849.53552	-404.72031	2002.4176	1810.67108	-437.61826	1985.59891	1778.19992	-342.39811	1005.21378	1412.48138	-332.27779	1012.82822	1812.01141	-376.05358	455.33005	1452.70706	-276.51852	492.01908	1425.04318	-283.86295	458.63644	1545.41138	-362.04681	448.68183	1772.76535	-249.95203	487.23789	1789.81995	-320.369	445.17605	1681.67633	-324.7876	130.91116	1418.44406	-295.53297	127.15743	1483.35236	-244.44798	128.86178	1418.67691	-324.71519	135.0841	1792.85675	-252.25266	125.41595	1806.9133	-294.90278	124.98954	1733.47229	-251.74562	1150.70381	1529.30283	-354.05571	1551.23627	268.61225
149	23.417	-536.38344	1241.1306	-89.18628	-518.15063	1243.12149	-320.79308	-240.21915	1216.92299	-366.48468	-277.14991	1225.0209	-13.70326	-391.37474	1609.32098	-201.05997	-252.68747	1665.33371	-213.88866	-439.79885	1812.68585	-204.40109	-255.98314	1766.08475	-275.19756	-293.57809	1777.0256	-123.41028	-297.44989	1534.80072	-461.50364	-236.70263	1226.39282	-477.61421	-318.79623	1142.85316	-465.8532	-326.89938	1223.18985	-471.19202	-244.67344	904.84566	-484.0937	-290.18042	893.07396	-495.16308	-318.8648	907.22519	-459.44969	-263.15048	1624.75754	-13.94468	-271.87252	1610.43915	255.33684	-268.25418	1525.59555	266.93634	-309.73169	1586.4032	582.80048	-271.49847	1613.47916	589.75441	-295.04238	1659.4606	571.79363	-419.7699	1038.84117	-446.78108	-376.48613	1019.03641	38.66187	-431.464	561.51421	-264.84272	-325.06042	578.59833	-332.68593	-370.23205	565.01617	-171.27069	-383.83877	539.87358	-105.85643	-258.32676	557.26215	-45.12136	-258.02032	547.92198	-194.66421	-296.31128	139.52299	-272.94926	-298.80686	154.62427	-193.11687	-216.7	142.28636	-217.55943	-333.23978	193.25211	-120.56722	-260.33436	186.72911	-76.58168	-296.33436	165.72911	-160.58168	-472.56905	1048.81607	1742.28149	-438.53065	1060.43152	1455.01862	-276.05991	1138.73306	1746.41815	-400.7066	1570.47318	1594.5047	-256.89322	1594.01749	1599.45633	-442.55478	1772.30087	1596.3829	-279.21291	1732.08221	1521.0199	-287.8126	1731.76468	1675.64743	-299.62902	1592.77985	1505.62469	-441.82854	1736.46957	1315.62698	-475.70496	1742.1875	1382.41364	-377.29317	1769.6315	1359.26132	-487.09328	2009.58527	1333.85315	-446.96712	2011.22955	1373.96881	-486.93432	1997.72766	1409.47845	-297.95267	1584.32892	1704.92798	-438.40626	1749.31198	1819.76532	-343.40622	1757.49573	1839.28833	-404.50874	1746.53366	1891.86249	-428.97964	2012.36008	1836.7807	-405.30903	2005.21088	1798.15216	-438.62362	1987.83386	1765.90134	-342.86644	1005.22942	1412.15347	-332.29836	1012.86209	1811.53442	-376.34251	455.34554	1452.66434	-276.88852	491.97563	1424.91577	-284.04846	458.68202	1545.31662	-362.13024	448.67554	1772.67853	-250.00708	487.43755	1789.80637	-320.57217	445.19238	1681.60004	-324.86824	130.87769	1418.47229	-295.56137	127.23486	1483.42361	-244.50565	128.89467	1418.55682	-324.82784	135.15776	1792.75116	-252.26728	125.40614	1806.83075	-294.92838	124.95588	1733.4462	-252.18176	1150.75806	1529.05914	-354.36604	1551.53442	268.67966
150	23.433	-536.47884	1241.28258	-89.33008	-518.21049	1243.28331	-320.91908	-240.24366	1216.91475	-366.59149	-277.18658	1224.99168	-13.70621	-391.15795	1608.99658	-200.45904	-252.47066	1665.00916	-213.28773	-439.39026	1812.84149	-204.06824	-255.6818	1766.16837	-275.00515	-293.33517	1777.01797	-123.15859	-296.96222	1534.81995	-461.41415	-236.65588	1226.38687	-477.71561	-318.60582	1142.84225	-465.87635	-326.88148	1223.2811	-471.24004	-245.21444	904.84001	-484.32495	-290.67745	893.13904	-495.18955	-319.37033	907.3761	-459.26743	-262.51947	1624.35699	-13.36998	-270.84728	1609.27338	255.36736	-269.36966	1524.27582	267.24228	-313.24806	1589.40018	582.73026	-273.13524	1613.41858	590.13912	-292.60885	1660.96893	570.52773	-419.81953	1038.89534	-446.80458	-376.33991	1019.18488	38.27936	-431.41926	561.50345	-264.86427	-325.05886	578.58566	-332.71465	-370.18818	564.99916	-171.31342	-383.72742	539.82403	-105.911	-258.38284	557.2818	-45.12552	-258.06467	547.91206	-194.65195	-296.28687	139.52271	-272.95033	-298.79408	154.62741	-193.1176	-216.74564	142.24805	-217.50505	-333.28293	193.24131	-120.53906	-260.32742	186.73929	-76.60191	-296.32742	165.73929	-160.60191	-472.56042	1049.13429	1742.27386	-438.98815	1060.82626	1454.82086	-275.90458	1138.9193	1746.08292	-400.65376	1570.66498	1594.75861	-256.5233	1594.22943	1600.01266	-442.51377	1772.15286	1596.84586	-278.979	1732.09335	1520.60959	-287.69011	1731.80618	1676.01761	-298.99977	1593.4584	1507.10205	-442.41188	1739.5697	1321.45218	-475.25726	1745.05539	1388.72726	-377.07333	1772.48032	1364.19525	-486.53503	2012.41455	1338.06015	-446.4986	2014.30527	1378.19351	-486.71043	2001.05865	1413.66547	-298.0056	1584.12628	1703.30017	-439.01463	1751.97647	1811.63925	-344.26292	1760.58762	1832.19345	-405.64152	1750.6134	1884.03061	-429.46167	2015.55023	1825.30563	-406.39103	2007.61383	1786.38962	-439.99626	1989.98779	1755.12619	-343.25073	1005.26443	1411.88278	-332.19566	1012.94876	1811.38123	-376.67091	455.25902	1452.62939	-277.26532	491.99726	1424.72809	-284.2738	458.72707	1545.16068	-362.21397	448.71037	1772.67883	-250.05322	487.4604	1789.65652	-320.76756	445.18543	1681.5239	-324.9538	130.88033	1418.39874	-295.62914	127.21603	1483.37112	-244.6125	128.92593	1418.50296	-324.85405	135.14631	1792.71774	-252.25561	125.44885	1806.76117	-294.96634	124.95925	1733.40256	-252.43389	1150.77126	1528.71994	-354.53625	1552.30927	268.57162
151	23.45	-536.50738	1241.38435	-89.44293	-518.25649	1243.42323	-321.0424	-240.28244	1216.91177	-366.68087	-277.12736	1224.98619	-13.69936	-391.07029	1608.87085	-200.43846	-252.383	1664.88373	-213.26717	-438.95702	1812.93579	-203.81346	-255.04251	1766.32126	-274.51319	-292.91277	1776.90582	-122.95462	-296.51012	1534.89151	-461.3216	-236.56229	1226.36864	-477.76859	-318.36018	1142.83272	-465.93204	-326.79993	1223.3873	-471.40156	-245.63515	904.82704	-484.44736	-291.19162	893.24005	-495.13912	-319.77734	907.49565	-459.2421	-262.17398	1623.93051	-12.99895	-269.68222	1608.10089	255.47485	-270.29373	1523.08365	267.54515	-316.94592	1592.56393	582.71431	-275.0799	1613.54874	590.76298	-290.44491	1661.996	569.6899	-419.74815	1038.96378	-446.76849	-376.19621	1019.19128	37.8887	-431.35368	561.50059	-264.86101	-325.00347	578.61824	-332.75555	-370.19337	565.00957	-171.29543	-383.76194	539.83841	-105.90582	-258.40952	557.28416	-45.11003	-257.98063	547.94731	-194.69099	-296.26255	139.53922	-272.97276	-298.80669	154.65784	-193.10936	-216.78574	142.25315	-217.50332	-333.22563	193.2626	-120.56317	-260.31893	186.73672	-76.58892	-296.31893	165.73672	-160.58892	-472.49687	1049.37881	1742.23938	-439.46625	1061.15959	1454.37561	-275.83616	1139.1198	1745.83618	-400.4982	1570.96954	1595.02548	-256.0968	1594.3988	1600.49271	-442.54097	1771.9397	1597.20016	-278.84754	1732.19604	1520.54977	-287.60874	1731.98624	1676.35757	-298.01392	1593.65753	1508.64746	-442.83081	1741.99982	1326.20544	-474.87724	1747.43927	1393.97049	-377.01225	1774.52591	1368.33984	-486.10992	2014.52713	1342.05887	-446.01139	2016.5036	1382.22229	-486.34476	2003.62213	1417.74933	-297.42958	1584.28467	1701.43494	-439.8201	1754.20288	1804.30634	-344.99043	1763.24951	1825.05508	-406.85341	1754.12598	1876.99081	-430.28233	2018.0719	1815.54321	-407.28905	2009.67651	1776.24863	-441.77814	1991.66138	1745.6514	-343.56075	1005.29091	1411.69601	-332.00184	1013.05565	1811.07605	-376.82388	455.2494	1452.51328	-277.56409	492.02454	1424.54773	-284.41105	458.81809	1545.00946	-362.20074	448.71155	1772.59048	-250.06603	487.49592	1789.46609	-320.93719	445.15728	1681.37695	-325.00038	130.79801	1418.42148	-295.63322	127.26371	1483.34686	-244.67638	128.93614	1418.39371	-324.80301	135.06598	1792.63931	-252.24113	125.47207	1806.64627	-295.01078	124.9601	1733.3696	-252.58152	1150.78369	1528.42972	-354.83967	1553.06747	268.39298
152	23.467	-536.52039	1241.47507	-89.5272	-518.34129	1243.54698	-321.18462	-240.28805	1216.8988	-366.71341	-277.07342	1224.92188	-13.71303	-390.4636	1608.84247	-199.86736	-251.77631	1664.85504	-212.69608	-438.61217	1812.99591	-203.58683	-254.76536	1766.27258	-274.41126	-292.69053	1776.66626	-122.54286	-295.88596	1535.00336	-461.22353	-236.44855	1226.36414	-477.8162	-318.09061	1142.83485	-465.99281	-326.69075	1223.50327	-471.57875	-246.01271	904.82582	-484.64474	-291.51546	893.32085	-495.19768	-319.91388	907.52388	-459.09847	-261.70914	1623.60733	-12.64521	-268.69715	1606.82053	255.69057	-270.98705	1521.81549	267.8089	-320.58632	1596.29517	582.69726	-277.44873	1614.12018	591.269	-288.18487	1663.03909	568.98643	-419.67758	1039.05724	-446.71455	-376.33575	1019.24904	37.71051	-431.31874	561.50757	-264.85226	-324.98425	578.64082	-332.76844	-370.13569	564.9987	-171.3023	-383.78819	539.8716	-105.91353	-258.29977	557.29805	-45.14293	-257.94651	547.94788	-194.68416	-296.2464	139.54298	-272.98395	-298.77222	154.66148	-193.14846	-216.74488	142.25641	-217.52914	-333.20789	193.26748	-120.55884	-260.41513	186.73496	-76.99309	-296.41513	165.73496	-160.99309	-472.43584	1049.57176	1742.11487	-439.74503	1061.39	1454.17725	-275.7548	1139.32823	1745.48737	-400.40657	1571.13907	1595.31372	-255.89273	1594.45175	1600.79742	-442.57328	1771.71371	1597.40967	-279.0505	1732.19315	1522.06024	-287.55062	1732.17331	1676.60812	-297.53265	1593.79791	1510.05066	-442.94468	1743.73627	1329.77676	-474.50005	1749.06586	1397.62436	-376.77441	1776.02371	1371.40167	-485.67612	2016.19232	1345.80093	-445.67314	2018.11676	1385.82977	-486.16539	2005.28717	1421.40457	-295.92548	1584.2366	1699.18961	-440.38391	1755.88425	1797.59918	-345.64812	1765.39017	1819.45602	-408.00835	1756.85333	1870.70694	-430.9362	2020.14816	1807.04788	-408.89198	2011.46744	1767.31064	-443.53996	1993.07129	1737.66266	-343.95428	1005.3553	1411.37283	-331.89423	1013.04939	1810.73044	-376.97552	455.20947	1452.33322	-277.77445	492.02351	1424.42963	-284.51004	458.88763	1544.88739	-362.21706	448.71342	1772.50824	-250.03345	487.53483	1789.23798	-321.04607	445.16914	1681.2326	-325.03624	130.79355	1418.38516	-295.60398	127.27196	1483.39157	-244.75521	128.90147	1418.33878	-324.80114	135.09338	1792.60483	-252.23911	125.5094	1806.61865	-295.06048	124.93671	1733.3548	-252.63773	1150.77309	1528.02963	-355.07561	1553.67233	268.28831
